<mxfile host="app.diagrams.net" modified="2020-11-27T11:47:30.252Z" agent="5.0 (Windows NT 6.1; Win64; x64) AppleWebKit/537.36 (KHTML, like Gecko) Chrome/86.0.4240.198 Safari/537.36" etag="RaF88vHgDK8gxqsKgM10" version="13.10.3" type="github">
  <diagram id="BiezcFr4iXMCg-OM8pdk" name="Page-1">
    <mxGraphModel dx="868" dy="425" grid="1" gridSize="10" guides="1" tooltips="1" connect="1" arrows="1" fold="1" page="1" pageScale="1" pageWidth="1169" pageHeight="827" math="0" shadow="0">
      <root>
        <mxCell id="0" />
        <mxCell id="1" parent="0" />
        <mxCell id="eX34EMT1mgVTevCQ3lH2-2" value="&lt;b&gt;&lt;font style=&quot;font-size: 18px&quot;&gt;基于用电量及上一年的&lt;br&gt;排放总量&lt;/font&gt;&lt;/b&gt;" style="rounded=1;whiteSpace=wrap;html=1;fillColor=#CCFFFF;" vertex="1" parent="1">
          <mxGeometry x="400" y="270" width="120" height="70" as="geometry" />
        </mxCell>
        <mxCell id="eX34EMT1mgVTevCQ3lH2-8" style="edgeStyle=orthogonalEdgeStyle;rounded=0;orthogonalLoop=1;jettySize=auto;html=1;exitX=0.5;exitY=1;exitDx=0;exitDy=0;" edge="1" parent="1" source="eX34EMT1mgVTevCQ3lH2-3" target="eX34EMT1mgVTevCQ3lH2-7">
          <mxGeometry relative="1" as="geometry" />
        </mxCell>
        <mxCell id="eX34EMT1mgVTevCQ3lH2-9" style="edgeStyle=orthogonalEdgeStyle;rounded=0;orthogonalLoop=1;jettySize=auto;html=1;exitX=0.5;exitY=1;exitDx=0;exitDy=0;entryX=0.5;entryY=0;entryDx=0;entryDy=0;" edge="1" parent="1" source="eX34EMT1mgVTevCQ3lH2-3" target="eX34EMT1mgVTevCQ3lH2-6">
          <mxGeometry relative="1" as="geometry" />
        </mxCell>
        <mxCell id="eX34EMT1mgVTevCQ3lH2-10" style="edgeStyle=orthogonalEdgeStyle;rounded=0;orthogonalLoop=1;jettySize=auto;html=1;exitX=0.5;exitY=1;exitDx=0;exitDy=0;entryX=0.5;entryY=0;entryDx=0;entryDy=0;" edge="1" parent="1" source="eX34EMT1mgVTevCQ3lH2-3" target="eX34EMT1mgVTevCQ3lH2-2">
          <mxGeometry relative="1" as="geometry" />
        </mxCell>
        <mxCell id="eX34EMT1mgVTevCQ3lH2-3" value="&lt;b&gt;&lt;font style=&quot;font-size: 18px&quot;&gt;固定污染源&lt;br&gt;计算&lt;/font&gt;&lt;/b&gt;" style="rounded=1;whiteSpace=wrap;html=1;fillColor=#FFCC99;" vertex="1" parent="1">
          <mxGeometry x="400" y="160" width="120" height="60" as="geometry" />
        </mxCell>
        <mxCell id="eX34EMT1mgVTevCQ3lH2-6" value="&lt;b style=&quot;font-size: 18px&quot;&gt;基于燃料&lt;br&gt;消耗量&lt;/b&gt;" style="rounded=1;whiteSpace=wrap;html=1;fillColor=#CCFFFF;" vertex="1" parent="1">
          <mxGeometry x="600" y="270" width="120" height="70" as="geometry" />
        </mxCell>
        <mxCell id="eX34EMT1mgVTevCQ3lH2-7" value="&lt;b style=&quot;font-size: 18px&quot;&gt;基于在线&lt;br&gt;监测数据&lt;/b&gt;" style="rounded=1;whiteSpace=wrap;html=1;fillColor=#CCFFFF;" vertex="1" parent="1">
          <mxGeometry x="200" y="270" width="120" height="70" as="geometry" />
        </mxCell>
      </root>
    </mxGraphModel>
  </diagram>
</mxfile>
